<svg width="156" height="24" viewBox="0 0 156 24" fill="none" xmlns="http://www.w3.org/2000/svg">
<g clip-path="url(#clip0_346_4510)">
<path d="M12 0C18.6274 0 24 5.37259 24 12C24 18.1352 19.3955 23.1944 13.4538 23.9121V15.667L16.7001 15.667L17.3734 12H13.4538V10.7031C13.4538 9.73417 13.6439 9.06339 14.0799 8.63483C14.5159 8.20627 15.1979 8.01993 16.1817 8.01993C16.4307 8.01993 16.6599 8.02241 16.8633 8.02736C17.1591 8.03456 17.4002 8.047 17.568 8.06467V4.74048C17.501 4.72184 17.4218 4.70321 17.3331 4.68486C17.1321 4.6433 16.8822 4.60324 16.6136 4.56806C16.0523 4.49453 15.4093 4.4423 14.9594 4.4423C13.1424 4.4423 11.7692 4.83102 10.8107 5.63619C9.65388 6.60791 9.10108 8.18622 9.10108 10.4199V12H6.62659V15.667H9.10108V23.6466C3.87432 22.3498 0 17.6277 0 12C0 5.37259 5.37259 0 12 0Z" fill="#444444"/>
</g>
<g clip-path="url(#clip1_346_4510)">
<path fill-rule="evenodd" clip-rule="evenodd" d="M66.7466 4.83407C67.119 5.20883 67.3864 5.67482 67.5221 6.18541C68.0239 8.06995 68.0239 12 68.0239 12C68.0239 12 68.0239 15.93 67.5221 17.8145C67.3864 18.3251 67.119 18.7911 66.7466 19.1658C66.3743 19.5406 65.91 19.811 65.4003 19.95C63.5239 20.4545 56.0239 20.4545 56.0239 20.4545C56.0239 20.4545 48.5239 20.4545 46.6476 19.95C46.1379 19.811 45.6736 19.5406 45.3012 19.1658C44.9288 18.7911 44.6614 18.3251 44.5257 17.8145C44.0239 15.93 44.0239 12 44.0239 12C44.0239 12 44.0239 8.06995 44.5257 6.18541C44.6614 5.67482 44.9288 5.20883 45.3012 4.83407C45.6736 4.4593 46.1379 4.18891 46.6476 4.04996C48.5239 3.54541 56.0239 3.54541 56.0239 3.54541C56.0239 3.54541 63.5239 3.54541 65.4003 4.04996C65.91 4.18891 66.3743 4.4593 66.7466 4.83407ZM59.8421 12L53.5694 8.43135V15.5686L59.8421 12Z" fill="#444444"/>
</g>
<path fill-rule="evenodd" clip-rule="evenodd" d="M90.5119 10.8488C96.4175 8.27585 100.355 6.57959 102.326 5.76003C107.952 3.42005 109.121 3.01357 109.883 3.00014C110.05 2.99719 110.425 3.03872 110.668 3.23567C110.872 3.40197 110.929 3.62661 110.956 3.78428C110.983 3.94195 111.016 4.30112 110.99 4.58177C110.685 7.78504 109.366 15.5585 108.695 19.1462C108.411 20.6643 107.851 21.1733 107.31 21.2231C106.134 21.3314 105.24 20.4457 104.101 19.6988C102.318 18.53 101.311 17.8025 99.5802 16.662C97.5801 15.3439 98.8767 14.6195 100.017 13.4356C100.315 13.1258 105.498 8.41117 105.598 7.98348C105.611 7.92999 105.623 7.7306 105.504 7.62532C105.386 7.52004 105.211 7.55604 105.085 7.58467C104.906 7.62526 102.058 9.50789 96.5399 13.2326C95.7314 13.7877 94.9991 14.0582 94.343 14.044C93.6197 14.0284 92.2283 13.6351 91.194 13.2988C89.9253 12.8865 88.917 12.6684 89.0048 11.9681C89.0506 11.6033 89.5529 11.2302 90.5119 10.8488Z" fill="#444444"/>
<g clip-path="url(#clip2_346_4510)">
<path d="M150.395 7.02212C149.6 7.02368 148.954 6.3802 148.953 5.58548C148.951 4.79076 149.595 4.14457 150.39 4.14302C151.185 4.14146 151.831 4.78531 151.833 5.58004C151.834 6.37476 151.19 7.02057 150.395 7.02212Z" fill="#444444"/>
<path fill-rule="evenodd" clip-rule="evenodd" d="M144.011 18.161C140.609 18.1676 137.845 15.4149 137.839 12.0117C137.832 8.60923 140.585 5.84481 143.988 5.8382C147.391 5.83159 150.155 8.5859 150.162 11.9879C150.169 15.3912 147.414 18.1544 144.011 18.161ZM143.992 8.00035C141.784 8.00424 139.996 9.79858 140 12.0074C140.004 14.2166 141.799 16.0039 144.007 15.9996C146.216 15.9954 148.004 14.2014 148 11.9922C147.996 9.78302 146.201 7.99608 143.992 8.00035Z" fill="#444444"/>
<path fill-rule="evenodd" clip-rule="evenodd" d="M136.119 0.646479C136.881 0.347876 137.753 0.143362 139.03 0.0830982C140.31 0.0216726 140.719 0.00767102 143.977 0.00145262C147.236 -0.00476578 147.644 0.00766862 148.924 0.0644334C150.202 0.119643 151.074 0.321049 151.838 0.616544C152.628 0.920974 153.298 1.33078 153.966 1.99603C154.634 2.66205 155.045 3.33002 155.354 4.1189C155.652 4.88174 155.856 5.75306 155.917 7.03068C155.978 8.31023 155.992 8.71847 155.999 11.9771C156.005 15.2353 155.992 15.6443 155.936 16.925C155.88 18.2014 155.679 19.0743 155.384 19.8375C155.078 20.6276 154.669 21.2979 154.004 21.9659C153.339 22.6342 152.67 23.0452 151.881 23.3539C151.118 23.6517 150.247 23.8562 148.97 23.9173C147.69 23.9779 147.282 23.9923 144.022 23.9985C140.765 24.0048 140.356 23.9923 139.076 23.9359C137.799 23.88 136.926 23.6789 136.163 23.3838C135.373 23.0782 134.702 22.6696 134.034 22.004C133.366 21.3383 132.954 20.67 132.646 19.8811C132.348 19.1186 132.144 18.2469 132.083 16.9705C132.022 15.6901 132.008 15.2811 132.001 12.0229C131.995 8.76435 132.008 8.35611 132.064 7.07616C132.12 5.79855 132.321 4.92606 132.616 4.16206C132.921 3.37239 133.33 2.70248 133.996 2.03413C134.662 1.36616 135.33 0.954017 136.119 0.646479ZM136.942 21.3679C137.365 21.5308 138 21.7252 139.17 21.7761C140.436 21.8309 140.815 21.843 144.018 21.8368C147.223 21.8309 147.602 21.8173 148.868 21.7579C150.036 21.7022 150.672 21.5055 151.094 21.3407C151.654 21.1218 152.053 20.8601 152.472 20.4406C152.891 20.0195 153.151 19.6194 153.368 19.0591C153.531 18.6354 153.725 17.9996 153.776 16.8297C153.831 15.5646 153.843 15.1851 153.837 11.9809C153.831 8.77757 153.817 8.3981 153.757 7.13254C153.702 5.96339 153.506 5.32808 153.34 4.90623C153.121 4.34519 152.861 3.94705 152.44 3.52753C152.019 3.10801 151.619 2.84945 151.058 2.6325C150.635 2.46881 149.999 2.27518 148.83 2.22426C147.564 2.16865 147.185 2.15737 143.981 2.1636C140.777 2.16982 140.398 2.18264 139.133 2.24253C137.963 2.29812 137.329 2.49447 136.906 2.65972C136.346 2.87861 135.947 3.13872 135.527 3.5598C135.109 3.98087 134.849 4.38018 134.632 4.94161C134.47 5.36464 134.274 6.00072 134.224 7.16987C134.169 8.43581 134.157 8.81529 134.164 12.0187C134.169 15.2228 134.183 15.6023 134.242 16.8671C134.297 18.037 134.495 18.6715 134.66 19.0949C134.879 19.6544 135.139 20.0533 135.56 20.4729C135.981 20.8908 136.381 21.1509 136.942 21.3679Z" fill="#444444"/>
</g>
<defs>
<clipPath id="clip0_346_4510">
<rect width="24" height="24" fill="white"/>
</clipPath>
<clipPath id="clip1_346_4510">
<rect width="24" height="24" fill="white" transform="translate(44)"/>
</clipPath>
<clipPath id="clip2_346_4510">
<rect width="24" height="24" fill="white" transform="translate(132)"/>
</clipPath>
</defs>
</svg>
