<svg width="54" height="25" viewBox="0 0 54 25" fill="none" xmlns="http://www.w3.org/2000/svg">
<path d="M10.5 12C12.43 12 14 13.57 14 15.5C14 17.43 12.43 19 10.5 19C8.57 19 7 17.43 7 15.5C7 13.57 8.57 12 10.5 12ZM10.5 10C7.46 10 5 12.46 5 15.5C5 18.54 7.46 21 10.5 21C13.54 21 16 18.54 16 15.5C16 14.34 15.64 13.27 15.03 12.38L19 8.42V11H21V5H15V7H17.58L13.61 10.97C12.73 10.36 11.66 10 10.5 10Z" fill="#616161"/>
<path d="M47.4583 9.72901C47.4583 6.56235 44.8958 3.99985 41.7292 3.99985C38.5625 3.99985 36 6.56235 36 9.72901C36 12.5415 38.0208 14.8644 40.6875 15.354V17.5415H38.6042V19.6248H40.6875V21.7082H42.7708V19.6248H44.8542V17.5415H42.7708V15.354C45.4375 14.8644 47.4583 12.5415 47.4583 9.72901ZM38.0833 9.72901C38.0833 7.7186 39.7188 6.08318 41.7292 6.08318C43.7396 6.08318 45.375 7.7186 45.375 9.72901C45.375 11.7394 43.7396 13.3748 41.7292 13.3748C39.7188 13.3748 38.0833 11.7394 38.0833 9.72901Z" fill="#616161"/>
</svg>
