<svg width="101" height="17" viewBox="0 0 101 17" fill="none" xmlns="http://www.w3.org/2000/svg">
<path d="M10.0298 6.65559L10.1479 6.93196L10.4478 6.95833L14.3628 7.29524L11.395 9.87239L11.1675 10.0697L11.2358 10.3626L12.1226 14.1898L8.7583 12.1585L8.49951 12.0033L8.2417 12.1585L4.87744 14.1878L5.771 10.3636L5.83936 10.0697L5.61182 9.87141L2.64014 7.2972L6.55127 6.96516L6.85205 6.93977L6.97021 6.66243L8.49951 3.0511L10.0298 6.65559ZM8.03955 4.48079L6.95166 7.05696L4.1499 7.3011L2.97314 7.40266L3.86572 8.1761L5.98877 10.0179L5.3501 12.7562L5.07959 13.9115L6.09521 13.2982L8.49854 11.847L10.9116 13.305L11.9272 13.9193L11.6567 12.764L11.0171 10.0257L13.1411 8.18391L14.0327 7.4095L12.8569 7.30794L10.0532 7.0638L8.96045 4.47981L8.49951 3.38997L8.03955 4.48079Z" fill="#FF9806" stroke="#FF9806"/>
<path d="M31.0298 6.65559L31.1479 6.93196L31.4478 6.95833L35.3628 7.29524L32.395 9.87239L32.1675 10.0697L32.2358 10.3626L33.1226 14.1898L29.7583 12.1585L29.4995 12.0033L29.2417 12.1585L25.8774 14.1878L26.771 10.3636L26.8394 10.0697L26.6118 9.87141L23.6401 7.2972L27.5513 6.96516L27.8521 6.93977L27.9702 6.66243L29.4995 3.0511L31.0298 6.65559ZM29.0396 4.48079L27.9517 7.05696L25.1499 7.3011L23.9731 7.40266L24.8657 8.1761L26.9888 10.0179L26.3501 12.7562L26.0796 13.9115L27.0952 13.2982L29.4985 11.847L31.9116 13.305L32.9272 13.9193L32.6567 12.764L32.0171 10.0257L34.1411 8.18391L35.0327 7.4095L33.8569 7.30794L31.0532 7.0638L29.9604 4.47981L29.4995 3.38997L29.0396 4.48079Z" fill="#FF9806" stroke="#FF9806"/>
<path d="M57.6667 6.12833L52.5738 5.68917L50.5833 1L48.5929 5.69625L43.5 6.12833L47.3675 9.47875L46.2058 14.4583L50.5833 11.8163L54.9608 14.4583L53.8062 9.47875L57.6667 6.12833ZM50.5833 10.4917L47.92 12.0996L48.6283 9.06792L46.2767 7.02792L49.3792 6.75875L50.5833 3.90417L51.7946 6.76583L54.8971 7.035L52.5454 9.075L53.2537 12.1067L50.5833 10.4917Z" fill="#BEBEBE"/>
<path d="M78.5832 6.89916L73.4903 6.46L71.4998 1.77083L69.5094 6.46708L64.4165 6.89916L68.284 10.2496L67.1223 15.2292L71.4998 12.5871L75.8773 15.2292L74.7228 10.2496L78.5832 6.89916ZM71.4998 11.2625L68.8365 12.8704L69.5448 9.83875L67.1932 7.79875L70.2957 7.52958L71.4998 4.67499L72.7111 7.53666L75.8136 7.80583L73.4619 9.84583L74.1703 12.8775L71.4998 11.2625Z" fill="#BEBEBE"/>
<path d="M99.5832 6.89916L94.4903 6.46L92.4998 1.77083L90.5094 6.46708L85.4165 6.89916L89.284 10.2496L88.1223 15.2292L92.4998 12.5871L96.8773 15.2292L95.7228 10.2496L99.5832 6.89916ZM92.4998 11.2625L89.8365 12.8704L90.5448 9.83875L88.1932 7.79875L91.2957 7.52958L92.4998 4.67499L93.7111 7.53666L96.8136 7.80583L94.4619 9.84583L95.1703 12.8775L92.4998 11.2625Z" fill="#BEBEBE"/>
</svg>
