<svg width="24" height="24" viewBox="0 0 24 24" fill="none" xmlns="http://www.w3.org/2000/svg">
<path fill-rule="evenodd" clip-rule="evenodd" d="M2.5119 10.8488C8.41746 8.27585 12.3554 6.57959 14.3258 5.76003C19.9516 3.42005 21.1206 3.01357 21.8825 3.00014C22.0501 2.99719 22.4248 3.03872 22.6675 3.23567C22.8725 3.40197 22.9289 3.62661 22.9559 3.78428C22.9828 3.94195 23.0164 4.30112 22.9897 4.58177C22.6849 7.78504 21.3657 15.5585 20.6946 19.1462C20.4106 20.6643 19.8515 21.1733 19.3102 21.2231C18.1338 21.3314 17.2405 20.4457 16.101 19.6988C14.3181 18.53 13.3108 17.8025 11.5802 16.662C9.5801 15.3439 10.8767 14.6195 12.0165 13.4356C12.3148 13.1258 17.4981 8.41117 17.5984 7.98348C17.611 7.92999 17.6226 7.7306 17.5042 7.62532C17.3857 7.52004 17.2109 7.55604 17.0847 7.58467C16.9059 7.62526 14.0576 9.50789 8.53986 13.2326C7.73138 13.7877 6.99909 14.0582 6.34298 14.044C5.61967 14.0284 4.22832 13.6351 3.19399 13.2988C1.92534 12.8865 0.917041 12.6684 1.00484 11.9681C1.05057 11.6033 1.55292 11.2302 2.5119 10.8488Z" fill="#444444"/>
</svg>
