<svg width="86" height="56" viewBox="0 0 86 56" fill="none" xmlns="http://www.w3.org/2000/svg">
<path fill-rule="evenodd" clip-rule="evenodd" d="M12.3656 52.3201C12.3656 52.3201 12.3319 52.383 12.3263 52.4116C11.2205 54.5463 9.04267 56 6.55608 56C2.95248 56 0 52.921 0 49.1266C0 45.3322 2.95809 42.2532 6.55608 42.2532C9.04829 42.2532 11.2374 43.7412 12.3319 45.9045C12.3656 45.9446 12.3712 45.9675 12.4049 46.0304C12.4161 46.0419 10.3112 47.5871 10.2888 47.5585C10.2775 47.5184 10.2663 47.4841 10.2495 47.4669C9.64327 45.9274 8.20632 44.903 6.55608 44.9373C4.35014 44.9602 2.5315 46.8202 2.5315 49.1323C2.5315 51.4444 4.35014 53.3502 6.55608 53.3502C8.15581 53.3502 9.55346 52.343 10.1877 50.9236C10.2214 50.8721 10.227 50.8321 10.2495 50.7863L12.3656 52.3258V52.3201Z" fill="#161413"/>
<path fill-rule="evenodd" clip-rule="evenodd" d="M15.088 42.3791H17.6139V47.1807H24.2429V42.3791H26.7857V55.7424H24.2429V49.8705H17.6139V55.7424H15.088V42.3791Z" fill="#161413"/>
<path fill-rule="evenodd" clip-rule="evenodd" d="M62.4231 55.7424V42.3791H71.5892V45.0804H64.977V47.7473H71.0841V50.4142H64.977V53.0812H72.521V55.7367H62.4231V55.7424Z" fill="#161413"/>
<path fill-rule="evenodd" clip-rule="evenodd" d="M76.1077 55.7424V42.3791H78.6729V53.0869H85.7959V55.7424H76.1077Z" fill="#161413"/>
<path fill-rule="evenodd" clip-rule="evenodd" d="M48.6484 55.7424H46.0832V42.3791H49.6419L55.255 50.4142V42.3791H57.7977V55.7424H55.7658L48.6428 45.6641V55.7424H48.6484Z" fill="#161413"/>
<path fill-rule="evenodd" clip-rule="evenodd" d="M36.4288 45.0804L34.1892 50.42H38.7694L36.4288 45.0804ZM33.0385 53.0869L31.871 55.7424H28.8343L34.6438 42.3791H38.1969L44.0457 55.7424H41.009L39.8303 53.0869H33.0441H33.0385Z" fill="#161413"/>
<path fill-rule="evenodd" clip-rule="evenodd" d="M44.2142 37.2341C41.4638 38.8595 38.1689 39.8209 34.6608 39.8209C27.4816 39.8209 21.195 35.832 17.7935 29.9143C17.7935 29.8857 17.7654 29.8857 17.7654 29.8571C17.7654 29.8285 17.7373 29.8285 17.7373 29.7999L20.4877 28.3405L23.2381 26.9097C23.2662 26.9384 23.2943 26.967 23.3223 27.0185C25.6686 30.8987 29.8784 33.4855 34.6551 33.4855C36.1931 33.4855 37.6806 33.2108 38.9997 32.7701C36.0584 29.3306 34.2735 24.8151 34.2735 19.8933C34.2735 14.9715 36.0304 10.4846 38.9435 7.01645C37.6189 6.54716 36.1651 6.30107 34.6495 6.30107C29.9289 6.30107 25.5563 8.88788 23.1539 13.0428C23.1259 13.0714 23.1259 13.1 23.1259 13.1229L17.5914 10.2042C17.6195 10.147 17.6475 10.0954 17.67 10.0668C21.0603 4.04619 27.4255 0 34.6608 0C38.1689 0 41.4638 0.961471 44.2142 2.61543C46.9646 0.961471 50.2595 0 53.7677 0C61.0029 0 67.3682 4.04619 70.7473 10.0726C70.7753 10.1012 70.8034 10.1584 70.8258 10.2099L65.2913 13.1287C65.2913 13.1287 65.2913 13.0714 65.2633 13.0485C62.8609 8.89361 58.4883 6.30679 53.7677 6.30679C52.2578 6.30679 50.7984 6.55288 49.4737 7.02217C52.3869 10.4903 54.1438 15.0058 54.1438 19.899C54.1438 24.7922 52.3644 29.3363 49.4176 32.7759C50.7422 33.2165 52.2241 33.4912 53.7621 33.4912C58.5388 33.4912 62.7486 30.9044 65.1005 27.0242C65.1286 26.967 65.1566 26.9441 65.1791 26.9155L67.9295 28.3462L70.6855 29.8056C70.6855 29.8056 70.6574 29.8342 70.6574 29.8628C70.6574 29.8914 70.6294 29.8914 70.6294 29.9201C67.2279 35.8377 60.9412 39.8266 53.7621 39.8266C50.2539 39.8266 46.959 38.8595 44.2086 37.2398L44.2142 37.2341ZM44.2142 29.3363C41.9465 26.8869 40.4871 23.556 40.4871 19.899C40.4871 16.242 41.8623 13.0199 44.2142 10.5705C46.5605 13.0199 47.9413 16.2935 47.9413 19.899C47.9413 23.5045 46.4819 26.8869 44.2142 29.3363Z" fill="#161413"/>
</svg>
