<svg width="92" height="68" viewBox="0 0 92 68" fill="none" xmlns="http://www.w3.org/2000/svg">
<g clip-path="url(#clip0_631_1750)">
<path d="M81.7952 27.3223C84.9761 27.3223 88.2181 25.5161 88.2181 23.2739L83.2633 22.0283L83.2022 22.3397C84.242 22.6511 84.6702 23.3985 84.6702 24.2705C84.6702 25.5161 83.5692 26.9486 81.8564 27.0109V27.3223H81.7952ZM83.4468 30.1873C87.2394 30.1873 88.1569 34.1734 88.1569 37.9103C88.1569 38.0971 87.9734 38.2217 87.7899 38.2217H78.5532C78.3697 38.2217 78.2474 38.0971 78.2474 37.9103C78.2474 33.9242 79.7766 30.1873 83.4468 30.1873ZM84.1197 47.0035C79.9601 47.0035 78.2474 43.5157 78.2474 39.5296C78.2474 39.3428 78.4309 39.2182 78.6144 39.2182H92.1942C92.3777 39.2182 92.5 39.0937 92.5 38.9068C92.5 33.5505 88.6463 29.1285 83.4468 29.1285C78.2474 29.1285 73.9655 33.4882 73.9655 38.5331C73.9655 43.578 78.4309 47.9378 83.5692 47.9378C86.1995 47.9378 88.7075 46.8167 90.4814 44.8859L90.1756 44.6991C88.4016 46.2561 85.9548 47.0035 84.1197 47.0035Z" fill="black"/>
<path d="M63.2606 47.0034C59.4068 47.0034 58.0611 42.7059 58.0611 38.5953C58.0611 34.4847 59.4068 30.1872 63.2606 30.1872C67.1143 30.1872 68.46 34.4847 68.46 38.5953C68.3988 42.7059 67.1143 47.0034 63.2606 47.0034ZM63.2606 47.9999C68.46 47.9999 72.7419 43.6402 72.7419 38.5953C72.7419 33.5504 68.46 29.1907 63.2606 29.1907C58.0611 29.1907 53.7792 33.5504 53.7792 38.5953C53.718 43.6402 58.0611 47.9999 63.2606 47.9999Z" fill="black"/>
<path d="M47.7234 45.0727C47.7234 45.8201 47.1728 46.1938 46.7447 46.4429C46.3165 46.6921 45.8883 46.9412 45.8883 47.3149H53.5345C53.5345 47.0657 53.2287 46.8789 52.984 46.7543C52.3723 46.5052 51.9441 46.2561 51.9441 45.5087V18.8518H51.5771C50.2314 20.3466 48.0292 21.966 45.7659 22.3396V22.6511H47.3564C47.6622 22.6511 47.7234 22.8379 47.7234 23.2116V45.0727Z" fill="black"/>
<path d="M43.5027 45.5087V34.1733C43.5027 31.1215 41.0559 29.253 37.5692 29.253C35.1224 29.253 33.4708 30.1872 32.4921 31.5574V18.8518H32.1251C30.7793 20.3466 28.4548 21.966 26.2527 22.3396V22.6511H27.8431C28.2102 22.6511 28.2713 22.8379 28.2713 23.2116V45.1973C28.2713 45.9447 27.7208 46.3184 27.2926 46.5675C26.8644 46.8166 26.4362 47.0657 26.4362 47.4394H34.0825C34.0825 47.1903 33.7766 47.0035 33.532 46.8789C32.9203 46.6298 32.4921 46.3806 32.4921 45.6333V34.1733C32.4921 32.2425 34.0825 30.4364 36.4681 30.4364C38.4868 30.4364 39.3431 31.8066 39.3431 33.7373V45.6333C39.3431 46.3806 38.9149 46.6298 38.4256 46.8166C38.1197 46.9412 37.8139 47.0657 37.8139 47.3772H45.1543C45.1543 47.128 44.8484 46.9412 44.6038 46.8166C43.9309 46.5675 43.5027 46.3184 43.5027 45.5087Z" fill="black"/>
<path d="M23.2553 45.135C23.4388 44.9482 23.6223 44.8236 23.6835 44.6368L25.6409 38.5954L25.3351 38.4086C24.5399 40.0279 20.9308 46.8167 14.9362 46.8167C8.94148 46.8167 5.8218 40.5262 5.8218 33.3637C5.8218 26.2012 9.3085 19.8484 14.9362 19.8484C21.2367 19.8484 24.2952 27.696 24.5399 28.5057L24.8457 28.3188L24.4787 23.0248C24.4175 22.4643 24.1729 22.1529 23.8058 21.8414C20.8085 19.537 17.8723 18.7273 14.9362 18.7273C6.92287 18.7273 0.5 25.2047 0.5 33.3637C0.5 41.5227 7.04521 48 14.9362 48C18.6675 48 21.6037 46.6298 23.2553 45.135Z" fill="black"/>
</g>
<defs>
<clipPath id="clip0_631_1750">
<rect width="92" height="68" fill="white"/>
</clipPath>
</defs>
</svg>
