<svg width="92" height="26" viewBox="0 0 92 26" fill="none" xmlns="http://www.w3.org/2000/svg">
<path d="M0.27907 0.507592H12.2233C22.493 0.507592 26.5116 6.5987 26.5116 13.047C26.5116 19.6081 21.3581 25.4548 11.5535 25.4548H0.297674C0.0930233 25.4548 0.0186047 25.3232 0.0186047 25.2104C0.0186047 25.0788 0.148837 24.966 0.334884 24.966H2.43721C3.08837 24.966 3.51628 24.5712 3.51628 23.838V2.16197C3.51628 1.61678 3.25581 1.01518 2.4 1.01518H0.260465C0.0930233 1.01518 0 0.902386 0 0.770788C0 0.65799 0.0372093 0.507592 0.27907 0.507592ZM7.73954 24.2892C7.73954 24.8344 7.9814 25.0036 8.33488 25.0036H11.4977C19.293 25.0036 22.1209 18.9689 22.1209 12.9154C22.1209 6.86189 19.1256 0.996385 12.5395 0.996385H8.24186C7.79535 0.996385 7.75814 1.37238 7.75814 1.54158L7.73954 24.2892ZM27.7023 0.507592C27.5163 0.507592 27.3488 0.582791 27.3488 0.733189C27.3488 0.883586 27.4419 0.977585 27.6093 0.977585H29.7116C30.1954 0.977585 30.6605 1.31598 30.6605 2.25597V23.8568C30.6605 24.308 30.3256 24.9848 29.7302 24.9848H27.6465C27.4047 24.9848 27.386 25.1728 27.386 25.248C27.386 25.3232 27.3674 25.4548 27.6465 25.4548H37.7674C37.9163 25.4548 38.1209 25.436 38.1209 25.2856C38.1209 25.1352 38.0837 24.9848 37.8233 24.9848H35.8698C35.5907 24.9848 34.8279 24.8156 34.8279 23.9508V2.03037C34.8279 1.40998 35.2186 0.996385 35.9256 0.996385H37.8419C38.0093 0.996385 38.1023 0.902386 38.1023 0.770788C38.1023 0.63919 38.0093 0.526392 37.786 0.526392H27.7023V0.507592ZM43.5163 12.9906C43.5163 6.09111 46.5674 0.507592 52.2977 0.507592C57.9163 0.507592 61.0791 6.09111 61.0791 12.9906C61.0791 19.8901 58.1954 25.4736 52.2977 25.4736C46.5861 25.4924 43.5163 19.8901 43.5163 12.9906ZM52.2977 26C60.4465 26 65.5814 20.1721 65.5814 13.0094C65.5814 5.84671 60.5023 0 52.2977 0C44.1116 0 39.014 5.82791 39.014 12.9906C39.014 20.1533 44.3163 26 52.2977 26ZM91.6279 25.3044C88.4279 25.6428 86.6605 20.3413 85.0419 17.8221C83.8326 15.961 81.2651 14.0622 78.7349 13.6862C82.9023 13.4418 87.5721 12.0882 87.5721 7.31309C87.5721 3.44035 85.2093 0.507592 76.5395 0.507592H66.5488C66.4186 0.507592 66.2884 0.582791 66.2884 0.733189C66.2884 0.883586 66.4186 0.977585 66.5488 0.977585H68.8372C69.3209 0.977585 69.7861 1.31598 69.7861 2.25597V23.8568C69.7861 24.308 69.4512 24.9848 68.8558 24.9848H66.6047C66.4186 24.9848 66.3442 25.1352 66.3442 25.2104C66.3442 25.2856 66.4186 25.4548 66.6047 25.4548H77.2093C77.3581 25.4548 77.4884 25.3796 77.4884 25.2292C77.4884 25.0788 77.3954 24.9848 77.1907 24.9848H75.0512C74.7721 24.9848 74.0093 24.7968 74.0093 23.9508V13.7426H75.107C80.3535 13.7426 80.7442 19.4953 83.3488 22.7852C85.5814 25.6052 88.5023 25.9624 90.1581 25.9624C90.8651 25.9624 91.3488 25.9436 91.7954 25.8308C92.0744 25.7368 92.1302 25.248 91.6279 25.3044ZM75.0698 0.977585H76.614C79.2558 0.977585 83.5349 2.03037 83.5349 7.06869C83.5349 11.6934 79.7395 13.2538 76.2233 13.2538H73.9721V2.03037C73.9721 1.39118 74.3628 0.977585 75.0698 0.977585Z" fill="black"/>
</svg>
