<svg width="100" height="33" viewBox="0 0 100 33" fill="none" xmlns="http://www.w3.org/2000/svg">
<path d="M0 32.3126C0.824205 32.0129 1.3768 31.6663 1.65778 31.273C1.93876 30.8983 2.07925 30.3083 2.07925 29.5028V16.8587C2.07925 15.3602 2.51945 14.2363 3.39985 13.487C4.31771 12.719 5.73197 12.335 7.64263 12.335H11.2392L0.224783 0.280979H16.2125C18.1044 0.280979 19.3688 0.187319 20.0057 0L21.1577 8.65415C20.6894 6.31266 20.1649 4.59869 19.5842 3.51224C18.9474 2.36959 18.0857 1.59222 16.9992 1.18011C16.0252 0.805475 14.5453 0.618156 12.5598 0.618156H3.62463L14.7514 12.6722H7.64263C5.52592 12.6722 4.46757 13.7867 4.46757 16.0158V29.5028C4.46757 30.3083 4.59869 30.8983 4.86094 31.273C5.16065 31.6663 5.72261 32.0129 6.54681 32.3126H0Z" fill="black"/>
<path d="M30.2184 31.273C32.1853 31.273 33.9086 30.7859 35.3884 29.8119C36.7184 28.9127 37.7487 27.6858 38.4792 26.1311C39.1723 24.67 39.5188 23.0777 39.5188 21.3544C39.5188 19.5374 39.1536 17.8703 38.423 16.353C37.655 14.7982 36.5873 13.5807 35.2198 12.7003C33.7775 11.7824 32.101 11.3235 30.1903 11.3235C28.5794 11.3235 27.0246 11.6513 25.5261 12.3069C24.0088 12.9625 22.7818 13.871 21.8452 15.0324L24.7674 0.280979H38.7321C39.9122 0.280979 40.7364 0.187319 41.2047 0L40.6146 2.6693H24.6831L22.632 13.0374C25.0484 11.6325 27.6428 10.9301 30.4151 10.9301C32.7379 10.9301 34.789 11.4171 36.5685 12.3912C38.2731 13.309 39.5938 14.5828 40.5303 16.2125C41.4482 17.8422 41.9071 19.6685 41.9071 21.6916C41.9071 23.5648 41.4857 25.3068 40.6427 26.9178C39.7623 28.6411 38.5167 29.9898 36.9057 30.9639C35.1262 32.0503 33.0563 32.5936 30.6961 32.5936C28.8604 32.5936 27.1557 32.2096 25.5823 31.4416C23.9151 30.6174 22.5945 29.4372 21.6205 27.9012C20.5527 26.2341 20.0001 24.2579 19.9627 21.9726C20.15 23.9394 20.7682 25.6534 21.8171 27.1145C22.7912 28.4444 24.0462 29.4841 25.5823 30.2333C27.0434 30.9264 28.5887 31.273 30.2184 31.273Z" fill="black"/>
<path d="M53.8084 15.4819C55.7752 15.4819 57.4798 15.0979 58.9222 14.3299C60.2334 13.6181 61.2449 12.6441 61.9568 11.4078C62.6124 10.2464 62.9402 8.99133 62.9402 7.64263C62.9402 5.65705 62.3782 4.03673 61.2543 2.7817C59.9618 1.33934 58.1167 0.618156 55.719 0.618156H48.9193V29.5028C48.9193 30.1959 49.013 30.6923 49.2003 30.992C49.4251 31.3666 49.8747 31.657 50.549 31.863C51.2234 32.0503 52.3098 32.2002 53.8084 32.3126H44.4518C45.276 32.0129 45.8286 31.6663 46.1095 31.273C46.3905 30.8983 46.531 30.3083 46.531 29.5028V3.06267C46.531 2.2572 46.3999 1.66714 46.1376 1.2925C45.8379 0.917865 45.276 0.58069 44.4518 0.280979H55.9438C58.0418 0.280979 59.8307 0.62752 61.3105 1.3206C62.6592 1.95749 63.6895 2.85662 64.4013 4.018C65.0569 5.06699 65.3847 6.2471 65.3847 7.55834C65.3847 9.54392 64.6261 11.2298 63.1088 12.616C61.4604 14.1332 59.1376 15.0886 56.1405 15.4819H61.17L67.3516 29.8119C67.7075 30.6174 68.157 31.2074 68.7003 31.582C69.1873 31.9192 69.871 32.1627 70.7514 32.3126H60.7766C62.219 32.2377 63.268 32.1065 63.9236 31.9192C64.5418 31.7319 64.8977 31.4697 64.9913 31.1325C65.0663 30.8515 64.982 30.4207 64.7384 29.84L60.1866 19.1628C59.7745 18.2262 59.3436 17.5518 58.8941 17.1397C58.3321 16.634 57.4892 16.2593 56.3653 16.0158C55.2414 15.7723 53.5555 15.5943 51.3076 15.4819H53.8084Z" fill="black"/>
<path d="M78.3927 20.1743L75.3019 28.407C74.9648 29.2874 74.8617 29.9617 74.9929 30.43C75.124 31.0107 75.5829 31.4416 76.3697 31.7225C77.1939 32.041 78.4583 32.2377 80.1629 32.3126H71.3401C72.0707 32.1815 72.6607 31.9286 73.1103 31.5539C73.691 31.0856 74.178 30.327 74.5714 29.278L84.5462 2.7255L84.3776 2.24783C84.1153 1.57348 83.7875 1.11455 83.3941 0.871036C82.9258 0.552593 82.1297 0.355908 81.0058 0.280979H86.1477L97.3026 29.9805C97.5836 30.711 97.9114 31.2542 98.286 31.6101C98.6981 31.9661 99.2695 32.2002 100 32.3126H90.5872C92.0108 32.2377 93.0692 32.0972 93.7623 31.8911C94.3991 31.6851 94.7925 31.4041 94.9424 31.0482C95.036 30.7485 94.9798 30.327 94.7738 29.7838L91.1492 20.1743H78.3927ZM91.0087 19.809L84.7428 3.25936L78.5332 19.809H91.0087Z" fill="black"/>
</svg>
