<svg width="92" height="15" viewBox="0 0 92 15" fill="none" xmlns="http://www.w3.org/2000/svg">
<path d="M3.77691 11.8267C3.03993 10.6472 2.57932 9.03304 2.57932 7.48097C2.57932 5.95995 2.97852 4.50101 3.68479 3.25936L3.77691 3.10416C4.48319 1.67626 6.04928 0.713979 7.58466 0.713979C8.59801 0.713979 9.64207 1.02439 10.4712 1.45897C11.9758 2.39021 13.1734 3.81811 13.849 5.49433V2.94895C13.849 2.39021 12.9892 1.73834 12.9892 1.73834C11.5152 0.651897 9.70348 3.05176e-05 7.7382 3.05176e-05C6.9398 3.05176e-05 5.83432 0.217319 5.83432 0.217319C2.48719 0.962309 -0.00012207 3.94227 -0.00012207 7.48097C-0.00012207 11.268 2.82498 14.4032 6.47918 14.8067C6.47918 14.8067 7.21617 14.9309 7.7382 14.8998C9.85702 14.8998 11.8223 14.1548 13.3577 12.8822L13.5726 12.6649C13.7569 12.4165 13.8797 12.1061 13.8797 11.7957V9.6849C13.8797 9.06408 14.1868 8.50533 14.6474 8.16388H10.6861C11.1467 8.50533 11.4538 9.06408 11.4538 9.6849L11.4845 11.6715C11.4845 12.0751 11.331 12.4165 11.0853 12.6959C10.7782 13.0684 9.54994 13.6892 9.54994 13.6892C8.9665 13.9996 8.29093 14.1859 7.55395 14.1859C5.89574 14.1238 4.48319 13.1926 3.77691 11.8267Z" fill="#1B1B1B"/>
<path d="M43.6355 7.44993C43.6355 10.9886 46.1228 13.9065 49.4085 14.6205C49.4085 14.6205 50.514 14.8378 51.3124 14.8378C53.2777 14.8378 55.0587 14.2169 56.5327 13.1305C56.5327 13.1305 57.4232 12.5717 57.4232 12.013L57.761 9.31241C56.7476 11.8578 55.028 12.8201 54.0454 13.3788C53.2163 13.8134 52.1415 14.1238 51.1589 14.1238C49.6235 14.1238 48.0574 13.2546 47.3511 11.8267L47.259 11.6715C46.5527 10.4299 46.1535 9.002 46.1535 7.44993C46.1535 5.92891 46.5527 4.46997 47.259 3.22832L47.3511 3.07311C48.0574 1.64522 49.6235 0.682938 51.1589 0.682938C52.1722 0.682938 53.2163 0.993351 54.0454 1.42793C55.55 2.35917 56.7476 3.78706 57.4232 5.46329V2.91791C57.4232 2.35917 56.5634 1.7073 56.5634 1.7073C55.0894 0.620856 53.2777 3.05176e-05 51.3124 3.05176e-05C50.514 3.05176e-05 49.4085 0.217319 49.4085 0.217319C46.0921 0.900227 43.6355 3.88019 43.6355 7.44993Z" fill="#1B1B1B"/>
<path d="M66.3898 7.44993C66.3898 10.9886 68.8771 13.9065 72.1628 14.6205C72.1628 14.6205 73.2683 14.8378 74.0667 14.8378C76.032 14.8378 77.813 14.2169 79.287 13.1305C79.287 13.1305 80.1775 12.5717 80.1775 11.982L80.5153 9.28137C79.5019 11.8267 77.7823 12.789 76.7997 13.3478C75.9705 13.7823 74.8958 14.0928 73.9131 14.0928C72.3778 14.0928 70.8117 13.1926 70.1054 11.7957L70.0133 11.6405C69.307 10.3989 68.9078 8.97095 68.9078 7.41889C68.9078 5.89787 69.307 4.43893 70.0133 3.19728L70.1054 3.04207C70.8117 1.61418 72.3778 0.651897 73.9131 0.651897C74.9265 0.651897 75.9705 0.962309 76.7997 1.39689C78.3043 2.32812 79.5019 3.75602 80.1775 5.43225V2.94895C80.1775 2.39021 79.3177 1.73834 79.3177 1.73834C77.8744 0.651897 76.0627 3.05176e-05 74.0974 3.05176e-05C73.299 3.05176e-05 72.1935 0.217319 72.1935 0.217319C68.8771 0.931268 66.3898 3.91123 66.3898 7.44993Z" fill="#1B1B1B"/>
<path d="M92 0.651886H88.1923C88.6529 0.99334 88.96 1.52104 88.96 2.14187V13.3478C88.96 13.9375 88.6836 14.4963 88.223 14.8067H91.9386C91.5087 14.4652 91.2016 13.9375 91.2016 13.3478V2.14187C91.2323 1.52104 91.5087 0.962299 92 0.651886Z" fill="#1B1B1B"/>
<path d="M26.2242 0.651886H22.4165C22.8771 0.99334 23.1842 1.55208 23.1842 2.17291V10.554C23.307 12.0751 24.259 13.3788 25.5794 13.9996C26.6542 14.5273 27.8518 14.8377 29.1415 14.8377C30.4312 14.8377 31.6902 14.5584 32.765 13.9996H32.7957C34.1161 13.3788 35.068 12.0751 35.1909 10.554V2.11083C35.1909 1.49 35.4979 0.962299 35.9586 0.651886H33.7476C34.2082 0.99334 34.5153 1.49 34.5153 2.11083V10.554V10.5851C34.4232 11.5163 33.9626 12.3234 33.3177 12.8821L33.287 12.9132C32.55 13.503 31.2296 13.9375 29.9706 13.9375C29.2029 13.9375 28.4659 13.7823 27.7596 13.503L27.6982 13.4719C26.4699 13.0373 25.5794 11.8888 25.4259 10.523V10.492V2.17291C25.4259 1.52104 25.7636 0.962299 26.2242 0.651886Z" fill="#1B1B1B"/>
</svg>
