<svg width="90" height="15" viewBox="0 0 90 15" fill="none" xmlns="http://www.w3.org/2000/svg">
<path fill-rule="evenodd" clip-rule="evenodd" d="M82.1722 0C86.3594 0 89.7543 3.35775 89.7543 7.5C89.7543 11.6423 86.3594 15 82.1722 15C77.985 15 74.5901 11.6423 74.5901 7.5C74.5901 3.35775 77.985 0 82.1722 0ZM5.52984 0C7.10852 0 8.60902 0.447 9.99959 1.19025L8.58467 3.89175C7.78057 3.3015 6.94254 2.92725 6.07648 2.92725C5.29229 2.92725 4.19533 3.24 4.19533 4.242C4.19533 5.25225 5.43246 5.51175 6.09418 5.72175L7.08197 6.01275C9.91033 6.91275 10.5403 8.4975 10.6414 9.85725C10.758 11.4157 10.1412 12.8438 9.15492 13.6658C8.1177 14.526 6.76328 15 5.04074 15C3.29459 15 1.50492 14.3587 0 13.3597L1.53221 10.5352C2.55762 11.4067 3.72098 12.0345 4.90352 12.0345C5.8832 12.0345 7.00082 11.7053 7.00082 10.4708C7.00082 9.219 5.44131 8.9895 4.58705 8.75325C4.30082 8.67225 3.89951 8.54325 3.78295 8.49975C1.81328 7.77525 0.576885 6.4665 0.554016 4.74075C0.554016 1.905 2.76861 0 5.52984 0ZM23.6921 0.417V5.9325H29.5864V0.417H33.1967V14.583H29.5871V8.72325H23.6921V14.583H20.0818V0.417H23.6921ZM62.4423 0.417C65.4728 0.417 67.2108 1.9905 67.2108 4.73475C67.2108 6.7455 66.0851 8.31525 64.2349 8.69025L64.0593 8.7225L68.4428 14.583H64.1729L60.7323 9.05175H60.5338V14.583H56.967V0.417H62.4423ZM47.1312 0.417V14.583H43.4427V0.417H47.1312ZM82.1722 3.3825C79.9702 3.3825 78.1849 5.226 78.1849 7.5C78.1849 9.774 79.9702 11.6175 82.1722 11.6175C84.3743 11.6175 86.1595 9.774 86.1595 7.5C86.1595 5.226 84.3743 3.3825 82.1722 3.3825ZM61.0989 3.08625H60.5338V6.84H60.9912C63.4935 6.84 63.6189 5.60925 63.6248 5.04525V4.96275C63.6248 3.38475 62.3043 3.11475 61.2074 3.08775L61.0989 3.08625Z" fill="black"/>
</svg>
