<svg width="91" height="20" viewBox="0 0 91 20" fill="none" xmlns="http://www.w3.org/2000/svg">
<path d="M91 17.7991H84.7084V10.8772H89.6521V9.059H84.7084V2.16906H91V0.318979H80.9849V19.6491H91V17.7991ZM80.0225 5.67783C79.8936 1.81818 77.1655 0 73.5703 0C67.632 0 65.9952 4.68899 65.9952 9.95212C65.9952 15.5024 67.7602 19.9681 73.6986 19.9681C76.78 19.9681 79.8936 18.437 79.9903 14.2903H76.8767C76.8444 16.4913 75.8491 18.756 73.7309 18.756C70.3285 18.756 69.9752 13.8118 69.9752 10.1116V9.85644C69.9752 7.01756 70.0397 1.14832 73.4743 1.14832C75.7853 1.14832 76.3629 3.82775 76.459 5.64593H80.0225V5.67783ZM60.6346 0.318979H57.7457L51.1333 19.6491H52.995L55.1457 13.3014H60.7309L62.6247 19.6491H66.7011L60.6346 0.318979ZM55.7556 11.4514L58.0025 4.78469H58.163L60.1852 11.4514H55.7556ZM51.5827 13.7161C51.5827 10.9091 50.1383 8.99519 46.9605 8.16588L45.3876 7.75119C43.5259 7.27275 42.0494 6.50719 42.0494 4.43381C42.0494 2.55184 43.2371 1.62679 44.6815 1.62679C46.0938 1.62679 47.763 2.55183 48.7581 4.37001L50.8124 2.32855C49.3358 0.76555 47.3778 0.0318974 45.4839 0.0318974C42.2419 0.0318974 39.2247 2.20096 39.2247 6.252C39.2247 9.85644 41.7605 11.1005 44.2321 11.7703L45.3555 12.0893C47.5062 12.6635 48.4691 14.0989 48.4691 15.5343C48.4691 17.5758 47.0568 18.6284 45.4518 18.6284C43.3975 18.6284 41.7926 16.9697 40.8938 15.2472C38.7753 17.2568 38.7432 17.2887 38.7432 17.2887C40.3802 19.4258 43.0766 20 45.0988 20C49.2395 20 51.5827 17.193 51.5827 13.7161ZM34.5062 10.5901C36.7852 9.79269 37.9728 7.815 37.9728 5.74162C37.9728 3.0622 36.079 0.318979 31.8741 0.318979H25.5185V19.6491H29.242V11.4514H30.8469L34.7308 19.6491H38.8395L34.5062 10.5901ZM34.1531 5.90112C34.1531 8.32537 33.2543 10.0798 30.879 10.0798H29.242V1.72249H30.879C33.2543 1.72249 34.1531 3.47687 34.1531 5.90112ZM24.6518 17.7991H18.3605V10.8772H23.3037V9.059H18.3605V2.16906H24.6518V0.318979H14.637V19.6491H24.6518V17.7991ZM12.1975 0.318979L8.12099 15.2153H7.96048L4.10864 0.318979H0L5.48889 19.6491H8.47406L14.0271 0.350877H12.1975V0.318979Z" fill="black"/>
</svg>
